<?xml version="1.0" encoding="utf-8"?>
<!-- Generator: Adobe Illustrator 26.2.1, SVG Export Plug-In . SVG Version: 6.00 Build 0)  -->
<svg version="1.1" id="Calque_1" xmlns="http://www.w3.org/2000/svg" xmlns:xlink="http://www.w3.org/1999/xlink" x="0px" y="0px"
	 viewBox="0 0 800 800" style="enable-background:new 0 0 800 800;" xml:space="preserve">
<style type="text/css">
	.st0{opacity:0.1;fill:#FFFFFF;enable-background:new    ;}
	.st1{opacity:0.1;}
	.st2{fill:#FFFFFF;}
</style>
<g>
	<path class="st0" d="M107.3,577.9l-28.5-14c-1.8-0.9-3.9-0.7-5.5,0.4c-1.7,1.1-2.6,3-2.4,5l2.2,31.7c0.1,1.9,1.3,3.7,3.1,4.6
		c1.8,0.9,3.9,0.7,5.5-0.4l26.4-17.7c1.6-1.1,2.6-3,2.4-5C110.2,580.5,109.1,578.7,107.3,577.9z M83.4,590.6l-0.8-12.7l11.4,5.6
		L83.4,590.6z"/>
	<g class="st1">
		<g>
			<path class="st2" d="M111.6,321.3c-2.6,0-5.1-0.4-7.5-1.2c-1.2-0.4-2.6,0-3.3,0.7l-4.7,3.6c-5.5-2.9-8.9-6.3-11.8-11.8l3.5-4.6
				c0.9-0.9,1.2-2.2,0.8-3.4c-0.8-2.4-1.2-5-1.2-7.5c0-1.9-1.5-3.4-3.4-3.4h-7.7c-1.9,0-3.4,1.5-3.4,3.4c0,21.4,17.4,38.8,38.8,38.8
				c1.9,0,3.4-1.5,3.4-3.4v-7.7C115,322.8,113.5,321.3,111.6,321.3z"/>
		</g>
	</g>
	<g class="st1">
		<g>
			<path class="st2" d="M231.1,241.9c-11,0-20,7.9-20,17.6c0,4.1,1.6,8.1,4.6,11.2c0.6,2.4-0.1,5-1.9,6.7c-0.7,0.7-0.2,2,0.8,2
				c3.3,0,6.6-1.3,8.9-3.6c2.4,0.8,4.9,1.3,7.4,1.3c11,0,20.1-7.9,20.1-17.6C251.2,249.7,242.1,241.9,231.1,241.9z M221.9,262.9
				c-1.9,0-3.5-1.6-3.5-3.5s1.6-3.5,3.5-3.5s3.5,1.6,3.5,3.5S223.9,262.9,221.9,262.9z M231.3,262.9c-1.9,0-3.5-1.6-3.5-3.5
				s1.6-3.5,3.5-3.5s3.5,1.6,3.5,3.5C234.8,261.4,233.2,262.9,231.3,262.9z M240.7,262.9c-1.9,0-3.5-1.6-3.5-3.5s1.6-3.5,3.5-3.5
				s3.5,1.6,3.5,3.5C244.2,261.4,242.6,262.9,240.7,262.9z"/>
		</g>
	</g>
	<g class="st1">
		<g>
			<g>
				<path class="st2" d="M186,423.4h-26.2c-3.4,0-6.3,2.8-6.3,6.3v21.2c0,3.4,2.8,6.3,6.3,6.3H186c3.4,0,6.3-2.8,6.3-6.3v-21.2
					C192.4,426.2,189.5,423.4,186,423.4z"/>
			</g>
		</g>
		<g>
			<g>
				<path class="st2" d="M206.4,426.9c-0.4,0.1-0.8,0.3-1.1,0.4l-9.8,5.6v14.6l9.9,5.6c1.8,1.1,4.1,0.4,5.2-1.4
					c0.3-0.6,0.5-1.2,0.5-1.9v-19.4C211.1,428.2,208.9,426.3,206.4,426.9z"/>
			</g>
		</g>
	</g>
	<g class="st1">
		<g>
			<g>
				<path class="st2" d="M220.5,668.8h-26.2c-3.4,0-6.3,2.8-6.3,6.3v21.2c0,3.4,2.8,6.3,6.3,6.3h26.2c3.4,0,6.3-2.8,6.3-6.3v-21.2
					C226.8,671.6,223.9,668.8,220.5,668.8z"/>
			</g>
		</g>
		<g>
			<g>
				<path class="st2" d="M240.8,672.3c-0.4,0.1-0.8,0.3-1.1,0.4l-9.8,5.6V693l9.9,5.6c1.8,1.1,4.1,0.4,5.2-1.4
					c0.3-0.6,0.5-1.2,0.5-1.9v-19.4C245.5,673.6,243.3,671.7,240.8,672.3z"/>
			</g>
		</g>
	</g>
	<g class="st1">
		<g>
			<g>
				<path class="st2" d="M659.6,682.3h-26.2c-3.4,0-6.3,2.8-6.3,6.3v21.2c0,3.4,2.8,6.3,6.3,6.3h26.2c3.4,0,6.3-2.8,6.3-6.3v-21.2
					C665.9,685.1,663,682.3,659.6,682.3z"/>
			</g>
		</g>
		<g>
			<g>
				<path class="st2" d="M679.9,685.8c-0.4,0.1-0.8,0.3-1.1,0.4l-9.8,5.6v14.6l9.9,5.6c1.8,1.1,4.1,0.4,5.2-1.4
					c0.3-0.6,0.5-1.2,0.5-1.9v-19.4C684.6,687.1,682.4,685.2,679.9,685.8z"/>
			</g>
		</g>
	</g>
	<g class="st1">
		<g>
			<path class="st2" d="M349.4,569.9c-2.6,0-5.1-0.4-7.5-1.2c-1.2-0.4-2.6,0-3.3,0.7l-4.7,3.6c-5.5-2.9-8.9-6.3-11.8-11.8l3.5-4.6
				c0.9-0.9,1.2-2.2,0.8-3.4c-0.8-2.4-1.2-5-1.2-7.5c0-1.9-1.5-3.4-3.4-3.4h-7.7c-1.9,0-3.4,1.5-3.4,3.4c0,21.4,17.4,38.8,38.8,38.8
				c1.9,0,3.4-1.5,3.4-3.4v-7.7C352.8,571.5,351.3,569.9,349.4,569.9z"/>
		</g>
	</g>
	<g class="st1">
		<g>
			<path class="st2" d="M442.7,269.5c-2.6,0-5.1-0.4-7.5-1.2c-1.2-0.4-2.6,0-3.3,0.7l-4.7,3.6c-5.5-2.9-8.9-6.3-11.8-11.8l3.5-4.6
				c0.9-0.9,1.2-2.2,0.8-3.4c-0.8-2.4-1.2-5-1.2-7.5c0-1.9-1.5-3.4-3.4-3.4h-7.7c-1.9,0-3.4,1.5-3.4,3.4c0,21.4,17.4,38.8,38.8,38.8
				c1.9,0,3.4-1.5,3.4-3.4V273C446.1,271.1,444.6,269.5,442.7,269.5z"/>
		</g>
	</g>
	<g class="st1">
		<g>
			<path class="st2" d="M538.6,553.1c-11,0-20,7.9-20,17.6c0,4.1,1.6,8.1,4.6,11.2c0.6,2.4-0.1,5-1.9,6.7c-0.7,0.7-0.2,2,0.8,2
				c3.3,0,6.6-1.3,8.9-3.6c2.4,0.8,4.9,1.3,7.4,1.3c11,0,20.1-7.9,20.1-17.6C558.7,561,549.6,553.1,538.6,553.1z M529.4,574.2
				c-1.9,0-3.5-1.6-3.5-3.5c0-1.9,1.6-3.5,3.5-3.5s3.5,1.6,3.5,3.5C532.9,572.6,531.3,574.2,529.4,574.2z M538.7,574.2
				c-1.9,0-3.5-1.6-3.5-3.5c0-1.9,1.6-3.5,3.5-3.5s3.5,1.6,3.5,3.5C542.3,572.6,540.7,574.2,538.7,574.2z M548.1,574.2
				c-1.9,0-3.5-1.6-3.5-3.5c0-1.9,1.6-3.5,3.5-3.5s3.5,1.6,3.5,3.5C551.7,572.6,550.1,574.2,548.1,574.2z"/>
		</g>
	</g>
	<g class="st1">
		<g>
			<g>
				<path class="st2" d="M600.3,303.8h-26.2c-3.4,0-6.3,2.8-6.3,6.3v21.2c0,3.4,2.8,6.3,6.3,6.3h26.2c3.4,0,6.3-2.8,6.3-6.3v-21.2
					C606.6,306.6,603.8,303.8,600.3,303.8z"/>
			</g>
		</g>
		<g>
			<g>
				<path class="st2" d="M620.6,307.2c-0.4,0.1-0.8,0.3-1.1,0.4l-9.8,5.6v14.6l9.9,5.6c1.8,1.1,4.1,0.4,5.2-1.4
					c0.3-0.6,0.5-1.2,0.5-1.9v-19.4C625.3,308.6,623.1,306.7,620.6,307.2z"/>
			</g>
		</g>
	</g>
	<g class="st1">
		<g>
			<path class="st2" d="M397.9,386.2c-11,0-20,7.9-20,17.6c0,4.1,1.6,8.1,4.6,11.2c0.6,2.4-0.1,5-1.9,6.7c-0.7,0.7-0.2,2,0.8,2
				c3.3,0,6.6-1.3,8.9-3.6c2.4,0.8,4.9,1.3,7.4,1.3c11,0,20.1-7.9,20.1-17.6C418,394.1,408.9,386.2,397.9,386.2z M388.7,407.3
				c-1.9,0-3.5-1.6-3.5-3.5s1.6-3.5,3.5-3.5c1.9,0,3.5,1.6,3.5,3.5S390.6,407.3,388.7,407.3z M398.1,407.3c-1.9,0-3.5-1.6-3.5-3.5
				s1.6-3.5,3.5-3.5s3.5,1.6,3.5,3.5S400,407.3,398.1,407.3z M407.5,407.3c-1.9,0-3.5-1.6-3.5-3.5s1.6-3.5,3.5-3.5s3.5,1.6,3.5,3.5
				S409.4,407.3,407.5,407.3z"/>
		</g>
	</g>
	<g class="st1">
		<g>
			<path class="st2" d="M636.9,106.8c-11,0-20,7.9-20,17.6c0,4.1,1.6,8.1,4.6,11.2c0.6,2.4-0.1,5-1.9,6.7c-0.7,0.7-0.2,2,0.8,2
				c3.3,0,6.6-1.3,8.9-3.6c2.4,0.8,4.9,1.3,7.4,1.3c11,0,20.1-7.9,20.1-17.6S647.9,106.8,636.9,106.8z M627.6,127.9
				c-1.9,0-3.5-1.6-3.5-3.5s1.6-3.5,3.5-3.5s3.5,1.6,3.5,3.5C631.2,126.4,629.6,127.9,627.6,127.9z M637,127.9
				c-1.9,0-3.5-1.6-3.5-3.5s1.6-3.5,3.5-3.5c1.9,0,3.5,1.6,3.5,3.5C640.6,126.4,639,127.9,637,127.9z M646.4,127.9
				c-1.9,0-3.5-1.6-3.5-3.5s1.6-3.5,3.5-3.5c1.9,0,3.5,1.6,3.5,3.5C649.9,126.4,648.4,127.9,646.4,127.9z"/>
		</g>
	</g>
	<g class="st1">
		<g>
			<g>
				<path class="st2" d="M340,83.9h-26.3c-3.4,0-6.3,2.8-6.3,6.3v21.2c0,3.4,2.8,6.3,6.3,6.3h26.2c3.4,0,6.3-2.8,6.3-6.3V90.2
					C346.3,86.7,343.4,83.9,340,83.9z"/>
			</g>
		</g>
		<g>
			<g>
				<path class="st2" d="M360.3,87.3c-0.4,0.1-0.8,0.3-1.1,0.4l-9.8,5.7v14.6l9.9,5.6c1.8,1.1,4.1,0.4,5.2-1.4
					c0.3-0.6,0.5-1.2,0.5-1.9V91C364.9,88.7,362.7,86.8,360.3,87.3z"/>
			</g>
		</g>
	</g>
	<g class="st1">
		<g>
			<path class="st2" d="M706.8,254.1c2.2,0,4.1-0.8,5.7-2.4c1.6-1.6,2.4-3.5,2.4-5.7v-13c0-2.2-0.8-4.1-2.4-5.7
				c-1.6-1.6-3.5-2.4-5.7-2.4c-2.2,0-4.1,0.8-5.7,2.4c-1.6,1.6-2.4,3.5-2.4,5.7v13c0,2.2,0.8,4.1,2.4,5.7S704.6,254.1,706.8,254.1z"
				/>
			<path class="st2" d="M720.9,241.6c-0.3-0.3-0.7-0.5-1.1-0.5c-0.4,0-0.8,0.2-1.1,0.5c-0.3,0.3-0.5,0.7-0.5,1.1v3.3
				c0,3.1-1.1,5.8-3.3,8c-2.2,2.2-4.9,3.3-8,3.3c-3.1,0-5.8-1.1-8-3.3c-2.2-2.2-3.3-4.9-3.3-8v-3.3c0-0.4-0.2-0.8-0.5-1.1
				c-0.3-0.3-0.7-0.5-1.1-0.5c-0.4,0-0.8,0.2-1.1,0.5c-0.3,0.3-0.5,0.7-0.5,1.1v3.3c0,3.7,1.2,7,3.7,9.8c2.5,2.8,5.6,4.4,9.3,4.8
				v3.4h-6.5c-0.4,0-0.8,0.2-1.1,0.5c-0.3,0.3-0.5,0.7-0.5,1.1c0,0.4,0.2,0.8,0.5,1.1c0.3,0.3,0.7,0.5,1.1,0.5h16.2
				c0.4,0,0.8-0.2,1.1-0.5c0.3-0.3,0.5-0.7,0.5-1.1c0-0.4-0.2-0.8-0.5-1.1c-0.3-0.3-0.7-0.5-1.1-0.5h-6.5v-3.4
				c3.7-0.4,6.8-2,9.3-4.8c2.5-2.8,3.7-6,3.7-9.8v-3.3C721.4,242.3,721.3,241.9,720.9,241.6z"/>
		</g>
	</g>
	<g class="st1">
		<g>
			<path class="st2" d="M659.7,487c2.2,0,4.1-0.8,5.7-2.4c1.6-1.6,2.4-3.5,2.4-5.7v-13c0-2.2-0.8-4.1-2.4-5.7
				c-1.6-1.6-3.5-2.4-5.7-2.4c-2.2,0-4.1,0.8-5.7,2.4c-1.6,1.6-2.4,3.5-2.4,5.7v13c0,2.2,0.8,4.1,2.4,5.7S657.5,487,659.7,487z"/>
			<path class="st2" d="M673.8,474.4c-0.3-0.3-0.7-0.5-1.1-0.5c-0.4,0-0.8,0.2-1.1,0.5c-0.3,0.3-0.5,0.7-0.5,1.1v3.3
				c0,3.1-1.1,5.8-3.3,8c-2.2,2.2-4.9,3.3-8,3.3c-3.1,0-5.8-1.1-8-3.3c-2.2-2.2-3.3-4.9-3.3-8v-3.3c0-0.4-0.2-0.8-0.5-1.1
				c-0.3-0.3-0.7-0.5-1.1-0.5c-0.4,0-0.8,0.2-1.1,0.5c-0.3,0.3-0.5,0.7-0.5,1.1v3.3c0,3.7,1.2,7,3.7,9.8c2.5,2.8,5.6,4.4,9.3,4.8
				v3.4h-6.5c-0.4,0-0.8,0.2-1.1,0.5c-0.3,0.3-0.5,0.7-0.5,1.1c0,0.4,0.2,0.8,0.5,1.1c0.3,0.3,0.7,0.5,1.1,0.5h16.2
				c0.4,0,0.8-0.2,1.1-0.5c0.3-0.3,0.5-0.7,0.5-1.1c0-0.4-0.2-0.8-0.5-1.1c-0.3-0.3-0.7-0.5-1.1-0.5h-6.5v-3.4
				c3.7-0.4,6.8-2,9.3-4.8c2.5-2.8,3.7-6,3.7-9.8v-3.3C674.3,475.1,674.2,474.8,673.8,474.4z"/>
		</g>
	</g>
	<g class="st1">
		<g>
			<path class="st2" d="M444.2,699.3c2.2,0,4.1-0.8,5.7-2.4c1.6-1.6,2.4-3.5,2.4-5.7v-13c0-2.2-0.8-4.1-2.4-5.7
				c-1.6-1.6-3.5-2.4-5.7-2.4c-2.2,0-4.1,0.8-5.7,2.4c-1.6,1.6-2.4,3.5-2.4,5.7v13c0,2.2,0.8,4.1,2.4,5.7
				C440,698.5,441.9,699.3,444.2,699.3z"/>
			<path class="st2" d="M458.3,686.8c-0.3-0.3-0.7-0.5-1.1-0.5c-0.4,0-0.8,0.2-1.1,0.5c-0.3,0.3-0.5,0.7-0.5,1.1v3.3
				c0,3.1-1.1,5.8-3.3,8c-2.2,2.2-4.9,3.3-8,3.3c-3.1,0-5.8-1.1-8-3.3c-2.2-2.2-3.3-4.9-3.3-8v-3.3c0-0.4-0.2-0.8-0.5-1.1
				c-0.3-0.3-0.7-0.5-1.1-0.5c-0.4,0-0.8,0.2-1.1,0.5c-0.3,0.3-0.5,0.7-0.5,1.1v3.3c0,3.7,1.2,7,3.7,9.8c2.5,2.8,5.6,4.4,9.3,4.8
				v3.4h-6.5c-0.4,0-0.8,0.2-1.1,0.5c-0.3,0.3-0.5,0.7-0.5,1.1c0,0.4,0.2,0.8,0.5,1.1c0.3,0.3,0.7,0.5,1.1,0.5h16.2
				c0.4,0,0.8-0.2,1.1-0.5c0.3-0.3,0.5-0.7,0.5-1.1c0-0.4-0.2-0.8-0.5-1.1c-0.3-0.3-0.7-0.5-1.1-0.5h-6.5v-3.4
				c3.7-0.4,6.8-2,9.3-4.8c2.5-2.8,3.7-6,3.7-9.8v-3.3C458.8,687.5,458.6,687.1,458.3,686.8z"/>
		</g>
	</g>
	<g class="st1">
		<g>
			<path class="st2" d="M106.8,136.1c2.2,0,4.1-0.8,5.7-2.4c1.6-1.6,2.4-3.5,2.4-5.7v-13c0-2.2-0.8-4.1-2.4-5.7
				c-1.6-1.6-3.5-2.4-5.7-2.4c-2.2,0-4.1,0.8-5.7,2.4c-1.6,1.6-2.4,3.5-2.4,5.7v13c0,2.2,0.8,4.1,2.4,5.7S104.6,136.1,106.8,136.1z"
				/>
			<path class="st2" d="M120.9,123.6c-0.3-0.3-0.7-0.5-1.1-0.5c-0.4,0-0.8,0.2-1.1,0.5c-0.3,0.3-0.5,0.7-0.5,1.1v3.3
				c0,3.1-1.1,5.8-3.3,8c-2.2,2.2-4.9,3.3-8,3.3c-3.1,0-5.8-1.1-8-3.3c-2.2-2.2-3.3-4.9-3.3-8v-3.3c0-0.4-0.2-0.8-0.5-1.1
				c-0.3-0.3-0.7-0.5-1.1-0.5s-0.8,0.2-1.1,0.5c-0.3,0.3-0.5,0.7-0.5,1.1v3.3c0,3.7,1.2,7,3.7,9.8c2.5,2.8,5.6,4.4,9.3,4.8v3.4h-6.5
				c-0.4,0-0.8,0.2-1.1,0.5c-0.3,0.3-0.5,0.7-0.5,1.1c0,0.4,0.2,0.8,0.5,1.1c0.3,0.3,0.7,0.5,1.1,0.5h16.2c0.4,0,0.8-0.2,1.1-0.5
				c0.3-0.3,0.5-0.7,0.5-1.1c0-0.4-0.2-0.8-0.5-1.1c-0.3-0.3-0.7-0.5-1.1-0.5h-6.5v-3.4c3.7-0.4,6.8-2,9.3-4.8
				c2.5-2.8,3.7-6,3.7-9.8v-3.3C121.4,124.3,121.3,123.9,120.9,123.6z"/>
		</g>
	</g>
	<g class="st1">
		<g>
			<path class="st2" d="M477.9,145.6c2.2,0,4.1-0.8,5.7-2.4c1.6-1.6,2.4-3.5,2.4-5.7v-13c0-2.2-0.8-4.1-2.4-5.7
				c-1.6-1.6-3.5-2.4-5.7-2.4c-2.2,0-4.1,0.8-5.7,2.4c-1.6,1.6-2.4,3.5-2.4,5.7v13c0,2.2,0.8,4.1,2.4,5.7
				C473.7,144.8,475.7,145.6,477.9,145.6z"/>
			<path class="st2" d="M492,133c-0.3-0.3-0.7-0.5-1.1-0.5c-0.4,0-0.8,0.2-1.1,0.5c-0.3,0.3-0.5,0.7-0.5,1.1v3.3
				c0,3.1-1.1,5.8-3.3,8c-2.2,2.2-4.9,3.3-8,3.3c-3.1,0-5.8-1.1-8-3.3c-2.2-2.2-3.3-4.9-3.3-8v-3.3c0-0.4-0.2-0.8-0.5-1.1
				c-0.3-0.3-0.7-0.5-1.1-0.5c-0.4,0-0.8,0.2-1.1,0.5c-0.3,0.3-0.5,0.7-0.5,1.1v3.3c0,3.7,1.2,7,3.7,9.8c2.5,2.8,5.6,4.4,9.3,4.8
				v3.4h-6.5c-0.4,0-0.8,0.2-1.1,0.5c-0.3,0.3-0.5,0.7-0.5,1.1c0,0.4,0.2,0.8,0.5,1.1c0.3,0.3,0.7,0.5,1.1,0.5H486
				c0.4,0,0.8-0.2,1.1-0.5c0.3-0.3,0.5-0.7,0.5-1.1c0-0.4-0.2-0.8-0.5-1.1c-0.3-0.3-0.7-0.5-1.1-0.5h-6.5v-3.4
				c3.7-0.4,6.8-2,9.3-4.8c2.5-2.8,3.7-6,3.7-9.8v-3.3C492.5,133.7,492.4,133.4,492,133z"/>
		</g>
	</g>
</g>
</svg>
